<?xml version="1.0" encoding="UTF-8" standalone="no"?>
<svg
   xmlns:dc="http://purl.org/dc/elements/1.1/"
   xmlns:cc="http://creativecommons.org/ns#"
   xmlns:rdf="http://www.w3.org/1999/02/22-rdf-syntax-ns#"
   xmlns:svg="http://www.w3.org/2000/svg"
   xmlns="http://www.w3.org/2000/svg"
   xmlns:xlink="http://www.w3.org/1999/xlink"
   id="svg2"
   height="779.8111"
   width="779.8111"
   version="1.1">
  <metadata
     id="metadata53">
    <rdf:RDF>
      <cc:Work
         rdf:about="">
        <dc:format>image/svg+xml</dc:format>
        <dc:type
           rdf:resource="http://purl.org/dc/dcmitype/StillImage" />
        <dc:title></dc:title>
      </cc:Work>
    </rdf:RDF>
  </metadata>
  <defs
     id="defs4">
    <linearGradient
       id="linearGradient3987">
      <stop
         id="stop4032"
         offset="0"
         style="stop-color:#41b3ec;stop-opacity:1;" />
      <stop
         id="stop3991"
         offset="1"
         style="stop-color:#0581c4;stop-opacity:1;" />
    </linearGradient>
    <radialGradient
       gradientUnits="userSpaceOnUse"
       gradientTransform="matrix(-0.89061708,0.86297075,-0.78291311,-0.80799475,1427.0215,361.93369)"
       r="146.04732"
       fy="732.08508"
       fx="523.18433"
       cy="732.08508"
       cx="523.18433"
       id="radialGradient3786"
       xlink:href="#linearGradient3987" />
    <radialGradient
       gradientUnits="userSpaceOnUse"
       gradientTransform="matrix(-0.87083717,0.55292729,-0.71897156,-1.1320773,466.9435,499.54917)"
       r="146.04732"
       fy="728.15845"
       fx="529.57996"
       cy="728.15845"
       cx="529.57996"
       id="radialGradient3796"
       xlink:href="#linearGradient3987" />
    <radialGradient
       gradientUnits="userSpaceOnUse"
       gradientTransform="matrix(-0.94821917,1.3404019,-1.4302101,-1.0037148,1646.3219,-657.0863)"
       r="146.04732"
       fy="726.3916"
       fx="505.65533"
       cy="726.3916"
       cx="505.65533"
       id="radialGradient3800"
       xlink:href="#linearGradient3987" />
  </defs>
  <ellipse
     ry="173.5993"
     rx="366.15549"
     cy="389.90555"
     cx="389.90555"
     id="path3803"
     style="fill:none;fill-opacity:0;stroke:url(#radialGradient3786);stroke-width:37.5001;stroke-miterlimit:4;stroke-dasharray:none;stroke-opacity:1;marker-start:none" />
  <ellipse
     ry="174.09163"
     rx="365.12195"
     cy="141.84499"
     cx="-532.39014"
     style="fill:none;fill-opacity:0;stroke:url(#radialGradient3796);stroke-width:37.5002;stroke-miterlimit:4;stroke-dasharray:none;stroke-opacity:1;marker-start:none"
     id="path4023"
     transform="matrix(-0.50141536,-0.8652067,0.86684024,-0.498586,0,0)" />
  <ellipse
     ry="174.09163"
     rx="365.12195"
     cy="-532.85632"
     cx="143.58514"
     transform="matrix(-0.50141531,0.86520673,-0.86684024,-0.498586,0,0)"
     id="path4029"
     style="fill:none;fill-opacity:0;stroke:url(#radialGradient3800);stroke-width:37.5002;stroke-miterlimit:4;stroke-dasharray:none;stroke-opacity:1;marker-start:none" />
  <g
     transform="translate(5.7969113,6.0979187)"
     id="g854">
    <g
       id="g843"
       transform="matrix(0.58271036,0,0,0.58271036,-170.26342,-142.97674)">
      <path
         id="path8"
         style="opacity:1;fill:#6666ff;fill-opacity:1;stroke:#6666ff;stroke-width:8.37518978;stroke-miterlimit:4;stroke-dasharray:none;stroke-opacity:1"
         d="m 1086.4108,742.13003 a 121.11819,126.06203 0 0 0 -4.3015,0.12098 h -7.472 v 8.44136 c 3.2594,-0.005 6.5144,-0.0103 9.7742,-0.0414 3.3189,0.0724 6.9817,-0.0931 10.0974,1.0102 2.7771,1.31128 5.0695,3.90128 7.1692,6.05846 21.9045,23.6869 44.4893,46.72632 66.3803,70.39916 C 1095.811,903.92584 1023.5751,979.7696 951.32769,1055.6333 878.95395,979.79762 806.64246,903.88241 734.39517,827.89649 c 21.64708,-22.48842 42.92895,-45.23502 64.60312,-67.79396 3.95557,-3.83501 7.41421,-9.18407 13.55074,-8.98668 11.39936,-0.15613 22.84525,-0.0517 34.29082,-0.0414 v -8.8655 h -7.00765 v 0.0414 h -19.16482 c -4.94446,0.0414 -10.08124,-0.31537 -14.9038,0.5449 -3.14277,0.63486 -5.72191,3.22073 -7.91642,5.39197 -20.83426,21.89626 -41.60866,43.72511 -62.32113,65.73407 -4.34838,4.53998 -8.65995,9.69558 -13.6315,13.53059 v 0.56558 c 11.46026,11.19484 22.15227,23.16526 33.34163,34.61394 65.36577,68.68245 130.79224,137.24599 196.29357,205.6842 72.41897,-75.8639 144.79477,-151.767 217.11427,-227.69658 4.0639,-4.18749 7.7816,-8.403 12.1977,-12.23801 v -0.66588 c -4.1046,-3.65179 -7.7656,-7.82202 -11.4909,-11.85441 -21.6741,-22.82674 -43.4748,-45.5753 -65.0272,-68.50078 -2.0184,-1.98803 -4.3845,-4.35521 -7.3105,-4.80633 a 121.11819,126.06203 0 0 0 -9.734,-0.42393 121.11819,126.06203 0 0 0 -0.8685,0 z" />
      <path
         id="path14"
         style="opacity:1;fill:#6666ff;fill-opacity:1;stroke:#6666ff;stroke-width:10.33974075;stroke-miterlimit:4;stroke-dasharray:none;stroke-opacity:1"
         d="m 835.53076,790.41579 c -6.77697,0.0724 -13.63015,0.69173 -19.56878,4.13993 -5.3988,3.0587 -9.34165,8.63668 -13.49016,13.16704 -6.3365,6.96857 -13.10076,13.60131 -19.8919,20.19476 10.27191,11.03736 21.08552,21.71593 31.5847,32.59448 45.68139,46.96724 91.45397,93.89818 137.32468,140.7982 56.2516,-57.72087 112.5297,-115.40545 168.8285,-173.0493 -8.4675,-9.2338 -17.6202,-17.77825 -26.031,-26.83897 a 52.567147,53.382861 0 0 0 -8.603,-8.27986 c -3.225,-2.14973 -7.6189,-2.03961 -11.3697,-2.14063 h -9.754 v 8.8655 c 3.724,0.0414 7.4412,0.0827 11.1676,0.0827 4.8305,-0.13029 7.3391,3.23344 10.5215,6.21997 6.9759,7.32932 14.0808,14.6571 21.1844,21.87103 -51.7148,53.61363 -104.0838,106.70995 -155.88371,160.26598 C 902.97503,938.74711 854.7177,888.99 806.22804,839.32957 c -3.52337,-3.62139 -7.47811,-7.1886 -10.31958,-11.32936 3.85021,-5.00639 8.82414,-9.30307 13.08629,-13.93435 4.20538,-4.1697 8.0104,-8.89362 12.64199,-12.60156 2.00322,-1.63037 4.32749,-1.41365 6.78545,-1.61558 10.05302,-0.27194 20.10738,-0.35155 30.17095,-0.36396 v -8.8654 c -7.68894,-0.10443 -15.36454,-0.20162 -23.06238,-0.20162 z" />
      <rect
         style="fill:#6666ff;fill-opacity:1;stroke:#6666ff;stroke-width:17.57755852;stroke-miterlimit:4;stroke-dasharray:none;stroke-opacity:1"
         id="rect993"
         width="97.104919"
         height="93.542831"
         x="914.31824"
         y="742.46143" />
      <rect
         style="fill:#6666ff;fill-opacity:1;stroke:#6666ff;stroke-width:12.40768814;stroke-miterlimit:4;stroke-dasharray:none;stroke-opacity:1"
         id="rect1007"
         width="66.008171"
         height="10.155103"
         x="-214.68402"
         y="1275.707"
         transform="rotate(-55.809528)" />
    </g>
  </g>
</svg>
